HIERARCHY
ROOT joint_Root
{
	OFFSET 0.0 0.0 0.0
	CHANNELS 6 Xposition Yposition Zposition Zrotation Xrotation Yrotation 
	JOINT Hips
	{
		OFFSET 4.5925 91.4895 -427.239
		CHANNELS 6 Xposition Yposition Zposition Zrotation Xrotation Yrotation 
		JOINT Spine
		{
			OFFSET 15.7357 0.0 0.0
			CHANNELS 6 Xposition Yposition Zposition Zrotation Xrotation Yrotation 
			JOINT Chest
			{
				OFFSET 8.98455 -0.406207 0.0
				CHANNELS 6 Xposition Yposition Zposition Zrotation Xrotation Yrotation 
				JOINT Neck
				{
					OFFSET 16.3773 0.0 0.0
					CHANNELS 6 Xposition Yposition Zposition Zrotation Xrotation Yrotation 
					JOINT Head
					{
						OFFSET 6.45672 0.0 0.0
						CHANNELS 6 Xposition Yposition Zposition Zrotation Xrotation Yrotation 
						End Site
						{
							OFFSET 0.0 0.0 0.0
						}
					}
				}
				JOINT Shoulder_L
				{
					OFFSET 12.9942 -0.242716 4.98039
					CHANNELS 6 Xposition Yposition Zposition Zrotation Xrotation Yrotation 
					JOINT UpperArm_L
					{
						OFFSET 5.34809 0.0 0.0
						CHANNELS 6 Xposition Yposition Zposition Zrotation Xrotation Yrotation 
						JOINT LowerArm_L
						{
							OFFSET 24.3286 1.87007e-05 0.0
							CHANNELS 6 Xposition Yposition Zposition Zrotation Xrotation Yrotation 
							JOINT Hand_L
							{
								OFFSET 22.2916 0.0 0.0
								CHANNELS 6 Xposition Yposition Zposition Zrotation Xrotation Yrotation 
								End Site
								{
									OFFSET 0.0 0.0 0.0
								}
							}
						}
					}
				}
				JOINT Shoulder_R
				{
					OFFSET 12.9945 -0.242716 -4.98039
					CHANNELS 6 Xposition Yposition Zposition Zrotation Xrotation Yrotation 
					JOINT UpperArm_R
					{
						OFFSET -5.34813 0.0 0.0
						CHANNELS 6 Xposition Yposition Zposition Zrotation Xrotation Yrotation 
						JOINT LowerArm_R
						{
							OFFSET -24.3289 0.000322201 0.0
							CHANNELS 6 Xposition Yposition Zposition Zrotation Xrotation Yrotation 
							JOINT Hand_R
							{
								OFFSET -22.2915 -0.000108084 0.0
								CHANNELS 6 Xposition Yposition Zposition Zrotation Xrotation Yrotation 
								End Site
								{
									OFFSET 0.0 0.0 0.0
								}
							}
						}
					}
				}
			}
		}
		JOINT UpperLeg_L
		{
			OFFSET -2.19248 -6.46944 0.0
			CHANNELS 6 Xposition Yposition Zposition Zrotation Xrotation Yrotation 
			JOINT LowerLeg_L
			{
				OFFSET 39.0811 0.0 -1.23785e-05
				CHANNELS 6 Xposition Yposition Zposition Zrotation Xrotation Yrotation 
				JOINT Foot_L
				{
					OFFSET 40.9854 0.0 -1.26872e-05
					CHANNELS 6 Xposition Yposition Zposition Zrotation Xrotation Yrotation 
					JOINT Toes_L
					{
						OFFSET 11.7543 0.0 0.0
						CHANNELS 6 Xposition Yposition Zposition Zrotation Xrotation Yrotation 
						End Site
						{
							OFFSET 0.0 0.0 0.0
						}
					}
				}
			}
		}
		JOINT UpperLeg_R
		{
			OFFSET -2.19251 6.46944 0.0
			CHANNELS 6 Xposition Yposition Zposition Zrotation Xrotation Yrotation 
			JOINT LowerLeg_R
			{
				OFFSET -39.0811 -0.00228153 -0.0401928
				CHANNELS 6 Xposition Yposition Zposition Zrotation Xrotation Yrotation 
				JOINT Foot_R
				{
					OFFSET -40.9854 0.0 0.0
					CHANNELS 6 Xposition Yposition Zposition Zrotation Xrotation Yrotation 
					JOINT Toes_R
					{
						OFFSET -11.7543 0.0 0.0
						CHANNELS 6 Xposition Yposition Zposition Zrotation Xrotation Yrotation 
						End Site
						{
							OFFSET 0.0 0.0 0.0
						}
					}
				}
			}
		}
	}
}
MOTION
Frames:	4
Frame Time:	0.0333333
0.000000 0.000000 0.000000 0.000000 0.000000 -0.000000 -43.067800 86.952100 191.269000 94.370400 69.815800 -0.832138 15.735700 0.000005 -0.000001 108.717000 84.106300 -110.019000 8.984550 -0.406207 -0.000000 3.449340 3.826950 -2.717220 16.377300 -0.000001 -0.000001 1.331230 2.363170 -0.142411 6.456720 -0.000001 -0.000000 -4.193990 1.275850 5.539430 12.994200 -0.242716 4.980390 -91.857000 5.391010 -70.960800 5.348090 -0.000007 -0.000001 -65.510400 19.120700 -3.306370 24.328600 0.000019 0.000005 7.827010 31.417800 -14.773200 22.291600 -0.000001 0.000005 9.062410 5.125050 4.533260 12.994500 -0.242716 -4.980390 88.469900 11.258700 -82.209500 -5.348130 -0.000001 -0.000004 -63.299700 28.739000 -12.087000 -24.328900 0.000322 -0.000009 1.319910 3.747940 -19.442100 -22.291500 -0.000108 -0.000004 16.569300 5.406100 -3.135390 -2.192480 -6.469440 -0.000000 179.322000 -15.153500 -18.519400 39.081100 -0.000007 -0.000012 -0.490512 0.448059 47.591000 40.985400 -0.000006 -0.000013 -0.713281 -4.191420 -76.108100 11.754300 -0.000000 0.000003 -0.000391 -0.003246 -16.697400 -2.192510 6.469440 -0.000001 165.901000 7.185100 -179.751000 -39.081100 -0.002282 -0.040193 0.238086 -0.147395 57.889700 -40.985400 0.000008 0.000006 2.043730 19.880000 -46.442100 -11.754300 -0.000006 -0.000006 -0.097377 -0.438002 -34.841100
0.000000 0.000000 0.000000 0.000000 0.000000 -0.000000 -40.096900 86.644500 191.434000 94.199100 70.244300 0.287008 15.735700 0.000005 -0.000001 104.875000 83.930200 -106.124000 8.984550 -0.406207 -0.000000 4.007420 3.152840 -2.605200 16.377300 -0.000001 -0.000001 1.405940 2.580050 -0.738379 6.456720 -0.000001 -0.000000 -4.218090 1.858480 3.597690 12.994200 -0.242716 4.980390 -91.927500 5.636240 -71.084800 5.348090 -0.000007 -0.000001 -64.435200 19.876600 -7.335970 24.328600 0.000019 0.000005 8.247020 30.548100 -15.916900 22.291600 -0.000001 0.000005 9.557280 5.143470 4.099530 12.994500 -0.242716 -4.980390 88.441000 11.340700 -82.119800 -5.348130 -0.000001 -0.000004 -64.846700 26.712100 -9.791540 -24.328900 0.000322 -0.000009 1.377890 5.148670 -15.024000 -22.291500 -0.000108 -0.000004 16.164900 5.377190 -2.208800 -2.192480 -6.469440 -0.000000 179.592000 -14.840800 -15.430000 39.081100 -0.000007 -0.000012 -0.535820 0.481930 48.032400 40.985400 -0.000006 -0.000013 -0.770695 -4.142510 -78.659900 11.754300 -0.000000 0.000003 -0.000416 -0.003414 -16.703300 -2.192510 6.469440 -0.000001 165.978000 5.613330 175.436000 -39.081100 -0.002282 -0.040193 0.337799 -0.154553 65.210300 -40.985400 0.000008 0.000006 -5.811970 15.456300 -35.912300 -11.754300 -0.000006 -0.000006 -0.018300 -0.157686 -23.012500
0.000000 0.000000 0.000000 0.000000 0.000000 -0.000000 -37.182700 86.832500 191.813000 93.705200 71.151800 1.307880 15.735700 0.000005 -0.000001 100.764000 83.837900 -101.839000 8.984550 -0.406207 -0.000000 4.366970 2.329780 -2.237270 16.377300 -0.000001 -0.000001 1.600470 2.687670 -1.086110 6.456720 -0.000001 -0.000000 -4.331110 2.578390 1.468450 12.994200 -0.242716 4.980390 -91.947500 5.824080 -71.474500 5.348090 -0.000007 -0.000001 -63.230400 21.605800 -11.571200 24.328600 0.000019 0.000005 8.611390 28.616300 -17.547100 22.291600 -0.000001 0.000005 10.470400 5.153240 3.867340 12.994500 -0.242716 -4.980390 88.405700 11.142500 -81.804100 -5.348130 -0.000001 -0.000004 -66.119600 24.784700 -7.412640 -24.328900 0.000322 -0.000009 1.473690 6.954700 -12.007400 -22.291500 -0.000108 -0.000004 15.503800 5.344780 -1.218980 -2.192480 -6.469440 -0.000000 179.873000 -13.457100 -11.804700 39.081100 -0.000007 -0.000012 -0.559078 0.532618 46.390000 40.985400 -0.000006 -0.000013 -1.137940 -4.613440 -80.084400 11.754300 -0.000000 0.000003 -0.000402 -0.003318 -16.699900 -2.192510 6.469440 -0.000001 166.777000 5.294060 172.597000 -39.081100 -0.002282 -0.040193 0.327765 -0.118140 70.003900 -40.985400 0.000008 0.000006 -4.962790 11.729700 -40.957700 -11.754300 -0.000006 -0.000006 -0.019242 -0.163056 -23.233500
0.000000 0.000000 0.000000 0.000000 0.000000 -0.000000 -34.423300 87.376500 192.334000 92.460700 72.515700 2.972900 15.735700 0.000005 -0.000001 96.328800 83.757900 -97.129000 8.984550 -0.406207 -0.000000 4.653380 1.395410 -1.655320 16.377300 -0.000001 -0.000001 1.940460 2.672270 -1.411760 6.456720 -0.000001 -0.000000 -4.430750 3.283460 0.177542 12.994200 -0.242716 4.980390 -91.869400 5.739790 -71.926200 5.348090 -0.000007 -0.000001 -62.190600 23.255500 -15.807500 24.328600 0.000019 0.000005 9.121830 26.682600 -19.676700 22.291600 -0.000001 0.000005 11.323300 5.172340 3.404720 12.994500 -0.242716 -4.980390 88.312000 11.039700 -81.251200 -5.348130 -0.000001 -0.000004 -66.847900 23.660200 -4.846100 -24.328900 0.000322 -0.000009 1.447030 7.914870 -10.402700 -22.291500 -0.000108 -0.000004 14.599600 5.328060 -0.727265 -2.192480 -6.469440 -0.000000 -179.610000 -11.631100 -7.633400 39.081100 -0.000007 -0.000012 -0.530464 0.566021 43.144100 40.985400 -0.000006 -0.000013 -1.499870 -4.960080 -80.517000 11.754300 -0.000000 0.000003 -0.000322 -0.002759 -16.680100 -2.192510 6.469440 -0.000001 167.955000 6.564020 170.288000 -39.081100 -0.002282 -0.040193 0.290397 -0.093662 71.944400 -40.985400 0.000008 0.000006 -1.674930 8.332090 -47.214400 -11.754300 -0.000006 -0.000006 -0.017208 -0.151303 -22.750000
